<?xml version="1.0" standalone="no"?>
<!DOCTYPE svg PUBLIC "-//W3C//DTD SVG 20010904//EN"
 "http://www.w3.org/TR/2001/REC-SVG-20010904/DTD/svg10.dtd">
<svg version="1.0" xmlns="http://www.w3.org/2000/svg"
 width="438.000000pt" height="436.000000pt" viewBox="0 0 438.000000 436.000000"
 preserveAspectRatio="xMidYMid meet">
<metadata>
Created by potrace 1.16, written by Peter Selinger 2001-2019
</metadata>
<g transform="translate(0.000000,436.000000) scale(0.100000,-0.100000)"
fill="#000000" stroke="none">
<path d="M875 4304 c-371 -50 -653 -280 -769 -625 -54 -162 -56 -205 -56
-1499 0 -1294 2 -1337 56 -1499 95 -282 305 -491 587 -585 165 -55 205 -56
1497 -56 1292 0 1332 1 1497 56 283 94 495 306 587 587 55 167 56 207 56 1499
0 1292 -2 1335 -56 1497 -95 283 -304 491 -587 585 -166 55 -203 56 -1512 55
-951 -1 -1221 -4 -1300 -15z m1830 -454 c266 -68 445 -263 445 -485 0 -117
-58 -222 -173 -313 -206 -163 -429 -200 -658 -108 -90 36 -154 46 -213 35 -99
-18 -163 -74 -217 -188 -20 -44 -37 -61 -104 -106 -100 -66 -161 -120 -236
-207 l-58 -68 -7 37 c-13 68 4 392 25 490 71 335 238 605 471 763 105 71 240
130 365 159 77 18 275 13 360 -9z m-57 -1170 c191 -38 348 -145 412 -283 97
-206 41 -385 -166 -533 -197 -141 -518 -179 -767 -92 -209 73 -320 23 -430
-191 -87 -170 -120 -343 -120 -626 0 -201 16 -295 73 -425 35 -80 37 -103 10
-130 -32 -32 -59 -25 -110 28 -106 110 -202 382 -245 697 -23 165 -16 489 13
623 32 146 60 229 117 347 227 468 686 689 1213 585z"/>
</g>
</svg>
